<?xml version="1.0" encoding="UTF-8"?>
<!DOCTYPE svg PUBLIC "-//W3C//DTD SVG 1.1//EN" "http://www.w3.org/Graphics/SVG/1.1/DTD/svg11.dtd">
<!-- Creator: CorelDRAW -->
<svg xmlns="http://www.w3.org/2000/svg" xml:space="preserve" width="6.72in" height="6.72in" style="shape-rendering:geometricPrecision; text-rendering:geometricPrecision; image-rendering:optimizeQuality; fill-rule:evenodd; clip-rule:evenodd"
viewBox="0 0 6.72 6.72"
 xmlns:xlink="http://www.w3.org/1999/xlink">
 <defs>
  <style type="text/css">
   <![CDATA[
    .fil2 {fill:none}
    .fil1 {fill:url(#id0);fill-rule:nonzero}
    .fil0 {fill:url(#id1);fill-rule:nonzero}
   ]]>
  </style>
  <linearGradient id="id0" gradientUnits="userSpaceOnUse" x1="0.757331" y1="3.36195" x2="5.96315" y2="3.36195">
   <stop offset="0" style="stop-color:#321B71"/>
   <stop offset="1" style="stop-color:#3093B0"/>
  </linearGradient>
  <linearGradient id="id1" gradientUnits="userSpaceOnUse" xlink:href="#id0" x1="1.88174" y1="3.36" x2="4.94206" y2="3.36">
  </linearGradient>
 </defs>
 <g id="Layer_x0020_1">
  <metadata id="CorelCorpID_0Corel-Layer"/>
  <path class="fil0" d="M1.88174 3.84776l0 -0.975512 0.132417 0 0.512398 0.765874 0 -0.765874 0.123787 0 0 0.975512 -0.132417 0 -0.512398 -0.766555 0 0.766555 -0.123787 0zm0.988232 0l0 -0.975512 0.705228 0 0 0.115154 -0.57622 0 0 0.298673 0.539654 0 0 0.114472 -0.539654 0 0 0.332059 0.598933 0 0 0.115154 -0.727941 0zm1.07658 0l-0.258925 -0.975512 0.132417 0 0.148539 0.639362c0.0159016,0.0670039 0.0295276,0.133551 0.0411102,0.199646 0.0249843,-0.104252 0.0395197,-0.164213 0.044063,-0.180339l0.185563 -0.658669 0.155811 0 0.139681 0.493776c0.0349803,0.122421 0.060189,0.237575 0.0758622,0.345232 0.0122638,-0.0615512 0.0286181,-0.132413 0.0486063,-0.212138l0.152854 -0.62687 0.129917 0 -0.267555 0.975512 -0.124465 0 -0.205551 -0.743161c-0.0172638,-0.0622323 -0.0274843,-0.10039 -0.0306614,-0.114472 -0.0102205,0.0447441 -0.0197598,0.0829016 -0.0286181,0.114472l-0.206913 0.743161 -0.131736 0z"/>
  <path class="fil1" d="M3.3799 1.23565l0.53711 -0.399441 0.0760197 -0.0565315 0.0427323 0.0846575 0.312705 0.619539 0.66126 -0.104091 0.0933819 -0.0146969 -0.00150394 0.0947008 -0.0110236 0.693728 0.633811 0.21511 0.0897835 0.0304724 -0.0454094 0.0832795 -0.332197 0.609217 0.46124 0.485016 0.0653346 0.0687047 -0.0787717 0.0525472 -0.577319 0.385098 0.183083 0.644071 0.0258583 0.0909685 -0.0946063 0.0099685 -0.689831 0.0726614 -0.137114 0.654945 -0.0194331 0.0928189 -0.0880669 -0.0350079 -0.644917 -0.256378 -0.425819 0.516268 -0.0604134 0.073248 -0.0617756 -0.072 -0.45163 -0.526406 -0.617087 0.259299 -0.0874567 0.036748 -0.0212913 -0.092689 -0.155283 -0.676067 -0.666547 -0.0571496 -0.0948228 -0.00813386 0.0241969 -0.0918661 0.176783 -0.671157 -0.563693 -0.360398 -0.0798583 -0.051063 0.0639173 -0.069878 0.468311 -0.511984 -0.331906 -0.581543 -0.0468543 -0.0820984 0.0893543 -0.0322756 0.652457 -0.235654 -0.023622 -0.668941 -0.00334252 -0.0947598 0.0936575 0.0128858 0.687783 0.094626 0.289831 -0.603035 0.0411417 -0.0855906 0.0769843 0.0549646 0.564858 0.403291zm0.556091 -0.21478l-0.507654 0.377535 -0.0465669 0.0346299 -0.047185 -0.0336929 -0.535059 -0.382016 -0.273957 0.570004 -0.0252598 0.0525669 -0.0572402 -0.00787795 -0.651358 -0.0896142 0.0223228 0.632177 0.00205118 0.0579961 -0.0548661 0.019815 -0.617961 0.223193 0.313693 0.549638 0.0286496 0.0501969 -0.0392717 0.0429291 -0.443657 0.485035 0.53298 0.34076 0.0491496 0.0314213 -0.0147717 0.0560787 -0.167358 0.635366 0.629906 0.0540079 0.058185 0.00498819 0.013063 0.0568898 0.147059 0.640268 0.583134 -0.245031 0.0535079 -0.0224843 0.0380551 0.0443622 0.427917 0.498764 0.402413 -0.487894 0.0370118 -0.044878 0.0539252 0.0214409 0.610776 0.242803 0.129614 -0.61913 0.0119331 -0.0570079 0.0580669 -0.00611417 0.653291 -0.068811 -0.173028 -0.608693 -0.0158071 -0.0555945 0.0483071 -0.0322205 0.546846 -0.364772 -0.435921 -0.458394 -0.0400236 -0.0420827 0.0278346 -0.0510433 0.314618 -0.57698 -0.599016 -0.203299 -0.0549882 -0.0186614 0.000925197 -0.0582165 0.0104449 -0.65724 -0.625157 0.0984055 -0.0572835 0.00901969 -0.0261575 -0.0518346 -0.296134 -0.586709z"/>
 </g>
 <rect class="fil2" width="6.72" height="6.72"/>
</svg>
